<svg width="32" height="32" viewBox="0 0 32 32" fill="none" xmlns="http://www.w3.org/2000/svg">
  <path
    d="M16.0002 17C17.5308 17 19.0375 17.1067 20.5108 17.316C21.8935 17.5107 22.9988 18.604 22.9988 20C22.9988 24.9707 19.8655 29 15.9988 29C12.1322 29 9.00015 24.9707 9.00015 20C9.00015 18.6053 10.1068 17.5107 11.4882 17.316C12.9829 17.1053 14.4906 16.9997 16.0002 17ZM16.0002 17C19.8442 17 23.5295 17.6773 26.9428 18.92C26.7818 21.6683 26.2656 24.3843 25.4068 27M16.0002 17C12.1562 17 8.47082 17.6773 5.05615 18.92C5.22282 21.7253 5.74949 24.4347 6.59349 27M16.0002 17C16.4058 17.0001 16.8073 16.9179 17.1803 16.7583C17.5533 16.5988 17.8901 16.3653 18.1703 16.0719C18.4505 15.7785 18.6682 15.4313 18.8104 15.0514C18.9526 14.6714 19.0162 14.2666 18.9975 13.8613M16.0002 17C15.5945 17.0001 15.193 16.9179 14.82 16.7583C14.447 16.5988 14.1102 16.3653 13.83 16.0719C13.5498 15.7785 13.3321 15.4313 13.1899 15.0514C13.0477 14.6714 12.9841 14.2666 13.0028 13.8613M18.9975 13.8613C18.9618 13.0904 18.6304 12.3629 18.0722 11.83C17.514 11.2971 16.7719 10.9999 16.0002 11M18.9975 13.8613C21.3654 13.642 23.7026 13.1581 25.9628 12.4187C25.8895 10.916 25.7135 9.43999 25.4402 7.99999M13.0028 13.8613C13.0385 13.0904 13.3699 12.3629 13.9281 11.83C14.4863 11.2971 15.2284 10.9999 16.0002 11M13.0028 13.8613C10.5935 13.6373 8.26282 13.1467 6.03882 12.4187C6.11051 10.9354 6.28515 9.459 6.56149 7.99999M16.0002 11C17.3268 11 18.6282 10.8933 19.8962 10.6853C20.4335 10.5973 20.8828 10.208 20.9562 9.66932C21.0927 8.63838 20.9069 7.59043 20.4242 6.66932M16.0002 11C14.6735 11 13.3735 10.8933 12.1042 10.6853C11.5682 10.5973 11.1175 10.208 11.0442 9.66932C10.9032 8.63685 11.0897 7.58617 11.5775 6.66532M11.5775 6.66532C11.0096 6.28712 10.4921 5.83951 10.0375 5.33066C10.1308 4.49066 10.3975 3.70132 10.8028 3.00132M11.5775 6.66532C12.0019 5.85991 12.6382 5.18701 13.4178 4.71668C14.1973 4.24635 15.0904 3.99778 16.0008 3.99778C16.9112 3.99778 17.8044 4.24635 18.5839 4.71668C19.3634 5.18701 19.9997 5.86125 20.4242 6.66666C20.9935 6.28932 21.5108 5.83999 21.9642 5.33466C21.8737 4.51118 21.6126 3.71559 21.1975 2.99866"
    stroke="white" stroke-width="1.5" stroke-linecap="round" stroke-linejoin="round" />
</svg>