<svg width="32" height="32" viewBox="0 0 32 32" fill="none" xmlns="http://www.w3.org/2000/svg">
  <path
    d="M9 10L13 13L9 16M15 16H19M7 27H25C25.7957 27 26.5587 26.6839 27.1213 26.1213C27.6839 25.5587 28 24.7957 28 24V8C28 7.20435 27.6839 6.44129 27.1213 5.87868C26.5587 5.31607 25.7957 5 25 5H7C6.20435 5 5.44129 5.31607 4.87868 5.87868C4.31607 6.44129 4 7.20435 4 8V24C4 24.7957 4.31607 25.5587 4.87868 26.1213C5.44129 26.6839 6.20435 27 7 27Z"
    stroke="white" stroke-width="1.5" stroke-linecap="round" stroke-linejoin="round" />
</svg>