<svg width="32" height="32" viewBox="0 0 32 32" fill="none" xmlns="http://www.w3.org/2000/svg">
  <path
    d="M16.0002 24V17M16.0002 17C16.6748 17.0005 17.3468 16.9159 18.0002 16.748M16.0002 17C15.3256 17.0005 14.6536 16.9159 14.0002 16.748M19.0002 26.7187C17.0179 27.0951 14.9825 27.0951 13.0002 26.7187M18.0002 29.896C16.6705 30.0352 15.3299 30.0352 14.0002 29.896M19.0002 24V23.744C19.0002 22.4334 19.8775 21.3134 21.0109 20.656C22.9149 19.5534 24.4021 17.8536 25.2421 15.8201C26.0821 13.7865 26.2279 11.5327 25.6571 9.40781C25.0862 7.28293 23.8305 5.40563 22.0845 4.06679C20.3385 2.72796 18.1997 2.00232 15.9995 2.00232C13.7993 2.00232 11.6605 2.72796 9.9145 4.06679C8.16851 5.40563 6.9128 7.28293 6.34195 9.40781C5.7711 11.5327 5.91697 13.7865 6.75697 15.8201C7.59696 17.8536 9.08418 19.5534 10.9882 20.656C12.1215 21.3134 13.0002 22.4334 13.0002 23.744V24"
    stroke="white" stroke-width="1.5" stroke-linecap="round" stroke-linejoin="round" />
</svg>