<svg width="32" height="32" viewBox="0 0 32 32" fill="none" xmlns="http://www.w3.org/2000/svg">
  <path
    d="M22.6151 15.7453C22.5811 15.6633 22.5321 15.5895 22.4703 15.5279L16.4711 9.52872C16.2128 9.27912 15.8032 9.27912 15.5448 9.52872C15.28 9.7845 15.2727 10.2065 15.5285 10.4713L20.3905 15.3333H9.99984C9.63167 15.3333 9.33317 15.6318 9.33317 16C9.33317 16.3682 9.63167 16.6667 9.99984 16.6667H20.3905L15.5285 21.5286C15.4035 21.6536 15.3333 21.8232 15.3333 21.9999C15.3332 22.3681 15.6317 22.6666 15.9998 22.6667C16.1767 22.6668 16.3463 22.5966 16.4711 22.4713L22.4708 16.4717C22.5325 16.4101 22.5812 16.3363 22.6151 16.2545C22.647 16.1772 22.6623 16.0953 22.6639 16.0129C22.664 16.0084 22.6665 16.0045 22.6665 16C22.6665 15.9968 22.6648 15.9941 22.6647 15.991C22.6636 15.9073 22.6475 15.8238 22.6151 15.7453ZM15.9998 2.66666C8.63607 2.66666 2.6665 8.63622 2.6665 16C2.6665 23.3638 8.63607 29.3333 15.9998 29.3333C23.36 29.3247 29.3245 23.3602 29.3332 16C29.3332 8.63622 23.3636 2.66666 15.9998 2.66666ZM15.9998 28C9.3724 28 3.99984 22.6274 3.99984 16C3.99984 9.37255 9.3724 3.99999 15.9998 3.99999C22.6242 4.00748 27.9924 9.37564 27.9998 16C27.9998 22.6274 22.6273 28 15.9998 28Z"
    fill="white" />
</svg>